<svg xmlns="http://www.w3.org/2000/svg" viewBox="0 0 100 100">
  <defs>
    <linearGradient id="grad" x1="0%" y1="0%" x2="100%" y2="100%">
      <stop offset="0%" stop-color="#00c6ff" />
      <stop offset="100%" stop-color="#0072ff" />
    </linearGradient>
    <filter id="glow" x="-20%" y="-20%" width="140%" height="140%">
      <feGaussianBlur stdDeviation="5" result="blur" />
      <feComposite in="SourceGraphic" in2="blur" operator="over" />
    </filter>
  </defs>
  <path fill="url(#grad)" filter="url(#glow)" d="M50 5 C28 5 15 22 15 42 C15 68 50 95 50 95 C50 95 85 68 85 42 C85 22 72 5 50 5 Z M50 58 C41 58 34 51 34 42 C34 33 41 26 50 26 C59 26 66 33 66 42 C66 51 59 58 50 58 Z"/>
  <circle cx="50" cy="42" r="12" fill="#ffffff" />
</svg>